<?xml version="1.0" encoding="UTF-8" standalone="no"?>
<!-- Created with Inkscape (http://www.inkscape.org/) -->

<svg
   xmlns:dc="http://purl.org/dc/elements/1.1/"
   xmlns:cc="http://creativecommons.org/ns#"
   xmlns:rdf="http://www.w3.org/1999/02/22-rdf-syntax-ns#"
   xmlns:svg="http://www.w3.org/2000/svg"
   xmlns="http://www.w3.org/2000/svg"
   xmlns:sodipodi="http://sodipodi.sourceforge.net/DTD/sodipodi-0.dtd"
   xmlns:inkscape="http://www.inkscape.org/namespaces/inkscape"
   width="210mm"
   height="297mm"
   id="svg2"
   version="1.1"
   inkscape:version="0.48.4 r9939"
   sodipodi:docname="cubesviewer-logo.svg">
  <sodipodi:namedview
     id="base"
     pagecolor="#ffffff"
     bordercolor="#666666"
     borderopacity="1.0"
     inkscape:pageopacity="0.0"
     inkscape:pageshadow="2"
     inkscape:zoom="1.2355034"
     inkscape:cx="77.768127"
     inkscape:cy="756.2322"
     inkscape:document-units="px"
     inkscape:current-layer="layer1"
     showgrid="false"
     showguides="true"
     inkscape:guide-bbox="true"
     inkscape:snap-bbox="true"
     inkscape:snap-global="true"
     inkscape:snap-bbox-midpoints="true"
     inkscape:window-width="1231"
     inkscape:window-height="763"
     inkscape:window-x="2387"
     inkscape:window-y="103"
     inkscape:window-maximized="0">
    <sodipodi:guide
       id="guide3029"
       position="178.46977,771.34553"
       orientation="0,1" />
    <sodipodi:guide
       orientation="0,1"
       position="230.67521,668.14872"
       id="guide5243" />
  </sodipodi:namedview>
  <defs
     id="defs4">
    <marker
       style="overflow:visible"
       id="DotL"
       refX="0.0"
       refY="0.0"
       orient="auto"
       inkscape:stockid="DotL">
      <path
         transform="scale(0.8) translate(7.4, 1)"
         style="fill-rule:evenodd;stroke:#000000;stroke-width:1.0pt"
         d="M -2.5,-1.0 C -2.5,1.7600000 -4.7400000,4.0 -7.5,4.0 C -10.260000,4.0 -12.5,1.7600000 -12.5,-1.0 C -12.5,-3.7600000 -10.260000,-6.0 -7.5,-6.0 C -4.7400000,-6.0 -2.5,-3.7600000 -2.5,-1.0 z "
         id="path3866" />
    </marker>
    <marker
       style="overflow:visible;"
       id="Arrow2Lend"
       refX="0.0"
       refY="0.0"
       orient="auto"
       inkscape:stockid="Arrow2Lend">
      <path
         transform="scale(1.1) rotate(180) translate(1,0)"
         d="M 8.7185878,4.0337352 L -2.2072895,0.016013256 L 8.7185884,-4.0017078 C 6.9730900,-1.6296469 6.9831476,1.6157441 8.7185878,4.0337352 z "
         style="fill-rule:evenodd;stroke-width:0.62500000;stroke-linejoin:round;"
         id="path3826" />
    </marker>
    <marker
       style="overflow:visible;"
       id="Arrow1Lend"
       refX="0.0"
       refY="0.0"
       orient="auto"
       inkscape:stockid="Arrow1Lend">
      <path
         transform="scale(0.8) rotate(180) translate(12.5,0)"
         style="fill-rule:evenodd;stroke:#000000;stroke-width:1.0pt;"
         d="M 0.0,0.0 L 5.0,-5.0 L -12.5,0.0 L 5.0,5.0 L 0.0,0.0 z "
         id="path3808" />
    </marker>
    <marker
       style="overflow:visible"
       id="DotL1"
       refX="0.0"
       refY="0.0"
       orient="auto"
       inkscape:stockid="DotL1">
      <path
         transform="scale(0.8) translate(7.4, 1)"
         style="stroke:#ffffff;stroke-width:1.0pt;fill:#ffffff;fill-rule:evenodd"
         d="M -2.5,-1.0 C -2.5,1.7600000 -4.7400000,4.0 -7.5,4.0 C -10.260000,4.0 -12.5,1.7600000 -12.5,-1.0 C -12.5,-3.7600000 -10.260000,-6.0 -7.5,-6.0 C -4.7400000,-6.0 -2.5,-3.7600000 -2.5,-1.0 z "
         id="path4830" />
    </marker>
    <marker
       style="overflow:visible;"
       id="Arrow2Lendq"
       refX="0.0"
       refY="0.0"
       orient="auto"
       inkscape:stockid="Arrow2Lendq">
      <path
         transform="scale(1.1) rotate(180) translate(1,0)"
         d="M 8.7185878,4.0337352 L -2.2072895,0.016013256 L 8.7185884,-4.0017078 C 6.9730900,-1.6296469 6.9831476,1.6157441 8.7185878,4.0337352 z "
         style="stroke-linejoin:round;stroke:#ffffff;stroke-width:0.62500000;fill:#ffffff;fill-rule:evenodd"
         id="path4833" />
    </marker>
  </defs>
  <metadata
     id="metadata7">
    <rdf:RDF>
      <cc:Work
         rdf:about="">
        <dc:format>image/svg+xml</dc:format>
        <dc:type
           rdf:resource="http://purl.org/dc/dcmitype/StillImage" />
        <dc:title></dc:title>
      </cc:Work>
    </rdf:RDF>
  </metadata>
  <g
     id="layer1"
     inkscape:groupmode="layer"
     inkscape:label="Capa 1">
    <path
       sodipodi:nodetypes="ccccc"
       inkscape:connector-curvature="0"
       id="path5249"
       d="m 144.71673,281.01665 50.64288,50.64287 -52.55393,52.55393 -50.64287,-50.64288 z"
       style="fill:#ff2a2a;fill-opacity:1;stroke:none"
       inkscape:export-filename="/home/jjmontes/git/cubesviewer/doc/images/cubesviewer-logo.png"
       inkscape:export-xdpi="300"
       inkscape:export-ydpi="300" />
    <path
       style="fill:#ff2a2a;fill-opacity:1;stroke:none"
       d="m 172.71673,281.01665 50.64288,50.64287 -52.55393,52.55393 -50.64287,-50.64288 z"
       id="rect3017"
       inkscape:connector-curvature="0"
       sodipodi:nodetypes="ccccc"
       inkscape:export-filename="/home/jjmontes/git/cubesviewer/doc/images/cubesviewer-logo.png"
       inkscape:export-xdpi="300"
       inkscape:export-ydpi="300" />
    <path
       transform="matrix(1.0245012,0,0,1.0245012,-236.93358,-175.60352)"
       d="m 499.06549,496.06439 a 50.36441,50.36441 0 1 1 -100.72882,0 50.36441,50.36441 0 1 1 100.72882,0 z"
       sodipodi:ry="50.36441"
       sodipodi:rx="50.36441"
       sodipodi:cy="496.06439"
       sodipodi:cx="448.70108"
       id="path3025"
       style="fill:#ff2a2a;fill-opacity:1;stroke:none"
       sodipodi:type="arc"
       inkscape:export-filename="/home/jjmontes/git/cubesviewer/doc/images/cubesviewer-logo.png"
       inkscape:export-xdpi="300"
       inkscape:export-ydpi="300" />
    <path
       inkscape:export-ydpi="300"
       inkscape:export-xdpi="300"
       inkscape:export-filename="/home/jjmontes/git/cubesviewer/doc/images/cubesviewer-logo.png"
       sodipodi:type="arc"
       style="fill:#ffffff;fill-opacity:1;stroke:none"
       id="path5278"
       sodipodi:cx="448.70108"
       sodipodi:cy="496.06439"
       sodipodi:rx="50.36441"
       sodipodi:ry="50.36441"
       d="m 499.06549,496.06439 a 50.36441,50.36441 0 1 1 -100.72882,0 50.36441,50.36441 0 1 1 100.72882,0 z"
       transform="matrix(0.75130086,0,0,0.75130086,-114.34829,-40.07856)" />
    <path
       transform="matrix(0.38167687,0,0,0.38167687,47.502389,143.27874)"
       d="m 499.06549,496.06439 a 50.36441,50.36441 0 1 1 -100.72882,0 50.36441,50.36441 0 1 1 100.72882,0 z"
       sodipodi:ry="50.36441"
       sodipodi:rx="50.36441"
       sodipodi:cy="496.06439"
       sodipodi:cx="448.70108"
       id="path5280"
       style="fill:#e9afaf;fill-opacity:1;stroke:none"
       sodipodi:type="arc"
       inkscape:export-filename="/home/jjmontes/git/cubesviewer/doc/images/cubesviewer-logo.png"
       inkscape:export-xdpi="300"
       inkscape:export-ydpi="300" />
  </g>
</svg>
