<?xml version="1.0" encoding="UTF-8" standalone="no"?>
<!-- Created with Inkscape (http://www.inkscape.org/) -->

<svg
   xmlns:dc="http://purl.org/dc/elements/1.1/"
   xmlns:cc="http://creativecommons.org/ns#"
   xmlns:rdf="http://www.w3.org/1999/02/22-rdf-syntax-ns#"
   xmlns:svg="http://www.w3.org/2000/svg"
   xmlns="http://www.w3.org/2000/svg"
   xmlns:sodipodi="http://sodipodi.sourceforge.net/DTD/sodipodi-0.dtd"
   xmlns:inkscape="http://www.inkscape.org/namespaces/inkscape"
   width="210mm"
   height="297mm"
   id="svg2"
   version="1.1"
   inkscape:version="0.48.3.1 r9886"
   sodipodi:docname="cubesviewer-logo.svg"
   inkscape:export-filename="/home/jjmontes/git/cubesviewer/src/images/cubesviewer-logo.png"
   inkscape:export-xdpi="49.376617"
   inkscape:export-ydpi="49.376617">
  <defs
     id="defs4">
    <inkscape:perspective
       sodipodi:type="inkscape:persp3d"
       inkscape:vp_x="-50.622548 : 662.62131 : 1"
       inkscape:vp_y="0 : 1500.3545 : 0"
       inkscape:vp_z="731.31604 : 656.46975 : 1"
       inkscape:persp3d-origin="328.88846 : 82.839367 : 1"
       id="perspective2989" />
  </defs>
  <sodipodi:namedview
     id="base"
     pagecolor="#ffffff"
     bordercolor="#666666"
     borderopacity="1.0"
     inkscape:pageopacity="0.0"
     inkscape:pageshadow="2"
     inkscape:zoom="1"
     inkscape:cx="380.24371"
     inkscape:cy="583.2844"
     inkscape:document-units="px"
     inkscape:current-layer="layer1"
     showgrid="false"
     inkscape:window-width="1321"
     inkscape:window-height="868"
     inkscape:window-x="235"
     inkscape:window-y="108"
     inkscape:window-maximized="0" />
  <metadata
     id="metadata7">
    <rdf:RDF>
      <cc:Work
         rdf:about="">
        <dc:format>image/svg+xml</dc:format>
        <dc:type
           rdf:resource="http://purl.org/dc/dcmitype/StillImage" />
      </cc:Work>
    </rdf:RDF>
  </metadata>
  <g
     inkscape:label="Capa 1"
     inkscape:groupmode="layer"
     id="layer1">
    <path
       style="fill:#55ddff;stroke:none"
       d="m 429.32428,528.21704 c 0,-2.38094 -0.0982,-2.45999 -4.82143,-3.88235 -2.65179,-0.79855 -5.625,-1.64852 -6.60714,-1.88881 -1.74172,-0.42612 -1.78624,-0.59886 -1.80694,-7.0105 -0.0255,-7.90886 -1.5999,-11.80557 -6.9304,-17.1535 -10.70383,-10.73883 -29.04229,-10.6371 -39.90073,0.22135 l -3.65837,3.65836 -0.0314,-4.22134 c -0.15052,-20.22855 -0.76526,-24.81549 5.54213,-30.64774 7.43784,-6.87755 26.7287,-5.02129 38.00971,0.35812 6.86671,3.27443 11.81647,7.43488 16.66566,13.87024 4.93251,6.54594 11.77647,19.61246 14.35147,27.28325 1.60653,4.78576 1.8946,6.99377 4.3303,15.14786 l 0,7.69549 -6.07142,3.5 -9.07143,-4.5 z"
       id="path3056"
       inkscape:connector-curvature="0"
       sodipodi:nodetypes="sssssscsssssscccs" />
    <path
       style="fill:#55ddff;stroke:none"
       d="m 252.34561,494.96752 c 0.27689,-6.92177 -2.91612,-15.48148 -1.21897,-19.67719 3.02966,-7.48993 4.78182,-6.07341 10.61687,-11.61614 6.70208,-6.36632 20.91656,-11.23138 35.00168,-10.67832 19.5348,0.76705 32.50534,10.29343 43.84444,22.29468 6.24673,6.61152 4.5413,6.09947 7.24034,21.78549 1.85766,10.79618 0.84111,16.67012 -1.52953,17.46033 -1.78808,0.59603 -4.61051,-5.09849 -6.33084,-7.81118 -9.35195,-14.7465 -30.14591,-17.26962 -43.19514,-5.24125 -5.45478,5.02804 -8.5512,13.69438 -7.46056,20.88084 0.445,2.93222 0.35012,3.22183 -1.18146,3.60623 -26.28578,18.66497 -42.21936,-15.12084 -35.78683,-31.00349 z"
       id="path3054"
       inkscape:connector-curvature="0"
       sodipodi:nodetypes="cssssssssscc" />
    <path
       style="fill:#ff5555;stroke:none;stroke-width:1.18654001000000009"
       id="path3015"
       d="m 354.10049,477.12512 c 1.7797,-2.87926 3.88378,-5.5007 6.34481,-7.81891 2.24593,-1.91282 4.77243,-3.46936 7.28295,-5.00765 52.55135,-30.19287 -9.16529,5.1983 6.01219,-3.57547 5.416,-3.13088 10.83939,-6.24897 16.25909,-9.37347 -32.02829,18.45269 -3.58915,2.04204 2.41405,-1.30014 1.01132,-0.56303 3.6675,-1.26249 4.88764,-1.65109 2.3878,-0.6921 4.87467,-0.82344 7.34383,-0.90477 2.40587,-0.0506 4.81252,-0.0332 7.21873,-0.0262 2.51133,0.29152 4.8803,1.11395 7.3171,1.7243 2.60108,0.77941 4.97376,2.05992 7.3034,3.43057 2.60517,1.29844 4.8872,3.15952 7.1023,5.02771 2.58587,1.81206 5.00108,3.83871 7.33993,5.95522 2.31132,2.16219 4.37459,4.60747 6.29521,7.12129 1.83879,2.29465 3.42059,4.76011 4.9379,7.27287 1.60307,2.2499 2.70358,4.78754 3.91359,7.25545 1.09123,2.43532 2.37633,4.77802 3.37851,7.25236 1.00379,2.37091 1.90056,4.79423 2.67168,7.25122 0.71102,2.40233 0.88527,4.9031 0.98762,7.3918 0.0676,2.4061 0.0515,4.81355 0.0458,7.22031 -0.007,2.39667 -0.0107,4.79335 -0.0125,7.19002 -0.072,2.67061 -0.89155,5.19374 -2.0232,7.58654 -1.25469,2.21127 -2.68555,4.32143 -4.32292,6.26655 0,0 -16.27541,6.9489 -16.27541,6.9489 l 0,0 c 1.52671,-1.98542 3.28015,-3.79038 4.53224,-5.98998 1.24121,-2.09747 2.06544,-4.3661 2.35524,-6.7965 10e-4,-2.39766 0.004,-4.79534 0.0107,-7.19301 0.007,-2.38754 0.0228,-4.77538 -0.0161,-7.16273 -0.063,-2.34579 -0.15506,-4.70978 -0.75893,-6.99122 -0.71302,-2.42586 -1.61786,-4.80176 -2.59476,-7.13172 -0.93815,-2.4498 -2.2446,-4.72938 -3.29516,-7.13093 -1.20254,-2.41593 -2.23351,-4.93436 -3.82423,-7.13484 -1.48624,-2.45773 -3.00895,-4.88586 -4.81994,-7.12394 -1.84304,-2.43198 -3.85152,-4.78289 -6.09427,-6.85324 -2.34541,-2.07867 -4.79639,-4.01954 -7.30881,-5.89258 -2.19056,-1.77325 -4.47485,-3.44518 -6.98753,-4.73922 -2.26178,-1.24174 -4.55465,-2.41203 -7.07962,-3.02887 -2.31455,-0.63776 -4.64509,-1.30961 -7.06596,-1.35015 -2.38821,-0.004 -4.7782,-0.0174 -7.16427,0.10014 -2.38966,0.16102 -4.77511,0.44729 -7.03835,1.28062 -1.18264,0.41862 -2.39756,0.78305 -3.54658,1.29031 -0.39102,0.17262 -1.52115,0.77842 -1.15261,0.56191 4.80675,-2.82396 35.49135,-20.49721 -2.38,1.33375 46.15189,-26.7758 -38.5647,22.52937 7.84161,-4.47125 -2.48997,1.56963 -5.05658,3.03392 -7.42688,4.78052 -2.57444,1.98459 -4.72418,4.40133 -6.37611,7.21118 0,0 -16.23223,7.19437 -16.23223,7.19437 z"
       inkscape:connector-curvature="0" />
    <path
       style="fill:#ff5555;stroke:none;stroke-width:1.22939444000000009"
       id="path3011"
       d="m 357.87785,468.37218 c 0.88045,7.75529 -4.96854,5.89882 -16.89798,11.34427 -0.0897,0.0409 -1.33309,-1.44956 -1.4099,-1.53963 -1.39962,-1.77504 -2.74467,-3.56556 -4.38404,-5.15952 -1.6501,-1.78834 -3.49223,-3.47158 -5.49247,-4.92042 -2.35994,-1.6534 -4.89436,-3.08309 -7.38016,-4.56744 -2.42892,-1.38091 -5.01183,-2.45609 -7.65818,-3.41704 -2.6551,-0.86644 -5.31438,-1.71067 -8.02003,-2.44041 -3.31818,-0.92379 -6.6574,-1.59962 -10.10183,-1.94846 -3.60479,-0.29421 -7.22623,-0.30197 -10.84185,-0.29933 -2.70065,0.13151 -5.45772,-0.23929 -8.11829,0.25927 -2.58869,0.52922 -5.06665,1.46817 -7.565,2.28885 -6.85425,2.6592 -19.50593,9.83551 8.57194,-5.14984 -2.8599,1.5391 -5.22755,3.70614 -7.78645,5.62277 -2.29257,1.61693 -4.32629,3.51038 -6.23701,5.50335 -2.01199,1.95022 -3.64097,4.17856 -5.12572,6.49148 -1.32086,2.02336 -2.69758,3.99427 -3.78474,6.13824 -1.0594,2.20516 -1.99087,4.47652 -2.6678,6.81021 -0.7791,2.32889 -1.41427,4.67362 -1.75065,7.0936 -0.26783,2.3607 -0.27587,4.73753 -0.28917,7.10863 -0.14945,2.38449 0.0912,4.71324 0.51672,7.05846 0.45299,2.38924 1.0529,4.76577 1.70457,7.11612 0.68655,2.44876 1.7827,4.7793 2.96198,7.05252 1.20296,2.47723 2.6896,4.83487 4.30627,7.09622 1.50854,2.36629 3.25189,4.58243 4.96282,6.81945 1.6748,2.20532 3.50716,4.32162 5.67033,6.12548 0.39352,0.31181 0.78705,0.62361 1.18058,0.93541 0,0 -16.02149,9.29907 -16.02149,9.29907 l 0,0 c -0.40666,-0.33003 -0.81332,-0.66005 -1.21997,-0.99009 -2.18923,-1.95715 -4.20231,-4.08872 -5.93772,-6.41125 -1.67563,-2.27313 -3.3959,-4.51903 -4.92809,-6.88103 -1.67364,-2.31923 -3.21847,-4.74105 -4.46008,-7.28682 -1.25463,-2.35809 -2.4028,-4.79045 -3.15807,-7.33051 -0.73614,-2.38222 -1.26147,-4.84396 -1.80026,-7.26682 -0.44563,-2.43704 -0.8821,-4.83782 -0.67097,-7.32495 0.004,-2.4278 7e-5,-4.85905 0.19883,-7.28137 0.25823,-2.48489 0.70746,-4.94449 1.65202,-7.29338 0.56726,-2.46233 1.53335,-4.7962 2.49442,-7.14322 1.12468,-2.16018 2.1277,-4.36663 3.77282,-6.25376 1.36197,-2.43726 2.96917,-4.78648 4.94993,-6.82944 1.92325,-2.06715 3.84897,-4.12852 6.17364,-5.81792 2.59895,-1.89913 5.01345,-3.98561 7.65393,-5.83503 7.8643,-4.21588 15.46166,-9.03954 23.99616,-12.02735 2.54185,-0.85788 5.13653,-1.6947 7.83346,-1.9851 2.73372,-0.12418 5.47263,-0.0462 8.20871,-0.0401 3.63569,0.0572 7.27485,0.1575 10.89359,0.51102 3.51524,0.44565 6.94643,1.21539 10.35147,2.14028 2.75184,0.77317 5.48948,1.57584 8.16406,2.5627 2.69459,1.07014 5.34923,2.20813 7.81467,3.69724 2.55509,1.49885 5.12473,2.9982 7.5131,4.72166 2.01986,1.56227 3.99701,3.20432 5.67758,5.08995 1.63547,1.61425 2.91723,3.47672 4.48732,5.13887 3.95082,3.23917 22.48592,-12.18537 -15.52351,9.07898 -0.43819,0.24515 0.53793,0.16037 0.69906,-0.54499 0.0547,-0.23945 -0.009,-0.48953 -0.0142,-0.73429 0,0 16.83578,-8.38459 16.83578,-8.38459 z"
       inkscape:connector-curvature="0" />
    <path
       style="fill:#d40000;stroke:none"
       id="path3005"
       d="m 351.40789,545.30305 c -0.40943,-3.68727 -1.05855,-7.34256 -1.46863,-11.03059 -0.6809,-5.17633 -1.39843,-10.34783 -2.06856,-15.52556 -0.782,-5.41208 -1.6558,-10.80371 -2.6718,-16.18368 -0.89826,-5.39799 -2.10898,-10.75648 -3.73405,-16.0147 -1.21946,-4.55913 -2.99235,-8.93952 -5.20566,-13.17461 -2.00041,-3.32366 -3.93886,-6.67763 -6.34088,-9.78267 -2.69725,-3.303 -5.71278,-6.36437 -8.92748,-9.26196 -3.03802,-2.66959 -6.08554,-5.3195 -9.39079,-7.7182 -2.66691,-1.89334 -5.59766,-3.27293 -8.77892,-4.31289 -3.77847,-1.20305 -7.74214,-1.61178 -11.6587,-2.24727 -4.4817,-0.7251 -9.0327,-0.96079 -13.57587,-1.09207 -3.11172,-0.0616 -6.22464,-0.0521 -9.33695,-0.0489 -2.96293,-0.21454 -5.76673,0.41353 -8.58415,1.13384 -6.52934,2.27314 -19.69238,9.58677 6.56863,-3.97969 -3.45303,1.8933 -6.52826,4.26243 -9.67801,6.52879 -3.30325,2.51033 -6.2443,5.37861 -9.23497,8.18218 -2.72678,2.48189 -5.238,5.14752 -7.56123,7.94105 -1.89464,2.18395 -3.73149,6.20031 -5.3698,8.54785 -1.55374,2.07675 -2.98019,2.42136 -4.32013,4.61482 -1.48446,2.36869 -3.07021,6.46161 -4.37344,8.91962 -1.20207,2.22797 -2.22147,2.71957 -3.22763,5.02282 -0.92768,2.2618 -1.69695,6.37603 -2.62986,8.63527 -1.12033,2.42539 -1.90834,4.95898 -2.80836,7.45464 -0.94994,2.51031 -1.67686,5.0883 -2.33687,7.67194 -0.39843,2.37329 -1.00852,4.70909 -1.49774,7.0671 -0.40629,2.1649 -0.41883,2.5547 -0.82534,4.71884 -0.48534,2.10306 -0.71487,4.23767 -0.84248,6.37927 -0.0994,2.14878 -0.0958,4.29998 -0.0974,6.4502 -0.13412,2.1506 0.0854,4.25119 0.47997,6.36682 0.28657,2.17353 0.66483,6.12186 1.14746,8.26655 0.4821,2.15538 1.03537,4.30639 1.64413,6.43662 0.11035,0.35917 0.22064,0.71836 0.33096,1.07753 l -15.49976,5.80122 0,0 c -0.11177,-0.36126 -0.22347,-0.72253 -0.33521,-1.08378 -0.68254,-2.14481 -1.16142,-4.35803 -1.70686,-6.53131 -0.47189,-2.16326 -0.97174,-4.30244 -1.17392,-6.50463 -0.41299,-2.19645 -0.81599,-4.36014 -0.62032,-6.60122 -0.001,-2.17194 -0.008,-4.3444 0.0608,-6.51566 0.0947,-2.2028 0.25373,-4.40807 0.74103,-6.5735 0.47273,-2.16216 0.57415,-4.32583 0.84007,-6.51591 0.43841,-2.40129 1.19583,-4.73628 1.52125,-7.155 0.62207,-2.63835 1.34415,-5.26829 2.26353,-7.8347 0.98668,-2.48943 1.63344,-5.07826 2.76248,-7.52437 1.04469,-2.20318 1.66921,-4.54735 2.59354,-6.7917 0.97219,-2.36394 2.03751,-4.68694 3.21857,-6.97207 1.32757,-2.44235 2.61816,-4.87806 4.30725,-7.14259 1.24726,-2.2688 2.70215,-4.45087 4.28189,-6.54293 1.66563,-2.38243 3.34618,-4.74495 5.38901,-6.88814 2.34499,-2.85023 4.80529,-5.63534 7.57515,-8.16316 3.02397,-2.81608 5.98132,-5.69526 9.15877,-8.37293 3.12205,-2.25146 6.12839,-4.64985 9.47701,-6.62772 7.47422,-3.94317 15.20516,-8.99492 23.73065,-11.41018 2.91078,-0.64899 5.856,-0.94748 8.85892,-0.80571 3.08938,0.004 6.17943,0.0194 9.2647,0.18399 4.57107,0.24105 9.14431,0.5645 13.65977,1.27494 4.0368,0.57947 8.08773,1.16309 11.94002,2.45132 3.2808,1.19354 6.37319,2.67726 9.10339,4.73322 3.25974,2.49177 6.23192,5.25879 9.28333,7.95318 3.28827,2.96583 6.47737,6.01678 9.21405,9.41913 2.49864,3.16068 4.34231,6.66906 6.3907,10.07414 2.24173,4.32116 4.05184,8.79691 5.24996,13.45214 1.62786,5.31469 2.8506,10.73343 3.72818,16.18981 1.06734,5.39762 2.03823,10.79561 2.76986,16.24071 0.635,5.17288 1.43722,10.32852 2.18677,15.48852 0.42295,3.61131 1.10046,7.18267 1.81606,10.75388 l -15.67612,7.49806 z"
       inkscape:connector-curvature="0"
       sodipodi:nodetypes="ccccccccccccccccccccccccccccccccccccccccccccccccccccccccccccccccccccc" />
    <path
       style="fill:#d40000;stroke:none"
       id="path3009"
       d="m 349.08507,540.86384 c 0.1522,-3.6134 0.18575,-7.23139 0.18339,-10.84722 -1.4e-4,-4.63588 0.0517,-9.27183 0.0233,-13.90769 0.18313,-4.00475 0.61988,-7.99525 0.88939,-11.99579 0.35977,-4.23696 1.29485,-8.40083 2.25278,-12.55264 0.96783,-3.75195 1.95186,-7.48659 3.23666,-11.16089 1.04221,-3.16341 2.25575,-6.27792 3.41475,-9.40781 1.29203,-3.18866 2.80848,-6.28973 4.40078,-9.36346 1.555,-3.2758 3.65902,-6.28768 5.80084,-9.2686 2.0635,-2.73563 4.06954,-5.51096 6.26408,-8.16367 1.78971,-2.31569 3.67864,-4.55448 5.73057,-6.68597 2.48642,-2.28579 5.18761,-4.38274 7.8851,-6.46382 5.7024,-4.2168 12.14127,-6.77819 18.7596,-10.20607 1.20006,-0.62155 2.42568,-1.04133 3.7384,-1.41843 2.37472,-0.81391 4.77598,-1.6159 7.2369,-2.19901 2.75229,-0.35616 5.4898,-0.51356 8.21698,-1.00156 2.4701,-0.44786 4.98593,-0.58023 7.49787,-0.65484 2.4045,-0.0507 4.80993,-0.0417 7.2149,-0.0389 2.65421,0.32683 5.20651,1.03388 7.81766,1.54128 2.86818,0.64817 5.83059,0.99154 8.68555,1.67963 2.56632,0.57492 5.14872,1.16467 7.62893,1.99876 2.48825,0.78463 4.9122,1.76546 7.25057,2.86432 2.77776,1.03316 5.1572,2.71938 7.5601,4.31094 2.36419,1.70797 4.98116,3.12931 7.2109,4.98475 1.91622,1.35678 3.37956,3.13292 4.77972,4.90952 1.89579,2.21315 3.3603,4.68601 4.87073,7.11835 1.6396,2.44431 3.00024,5.0409 4.34986,7.62451 1.08982,2.23952 1.99175,4.54161 2.90828,6.84138 0.73536,2.15535 1.32312,4.3505 2.06988,6.50326 0.71577,2.18659 1.60464,4.3215 2.21403,6.5355 0.74908,2.45313 1.30807,4.93681 1.63571,7.46306 0.0605,2.245 0.55686,4.43654 0.94582,6.64578 0.3674,2.17633 0.45361,4.37805 0.50716,6.57532 0.0364,2.16469 0.0285,4.32975 0.0258,6.49462 -0.004,2.16104 -0.005,4.32211 -0.006,6.48317 -0.0324,2.19026 0.0842,4.38352 -0.098,6.56889 -0.39746,2.19097 -0.68014,4.39746 -1.22165,6.56436 -0.45172,2.24305 -1.08171,4.43087 -1.94588,6.5727 -0.79522,2.23849 -1.7804,4.41273 -2.8471,6.5554 -0.98062,2.06292 -2.22658,4.00171 -3.74442,5.77785 -0.25891,0.26209 -0.51783,0.52418 -0.77674,0.78628 0,0 -16.27317,6.19239 -16.27317,6.19239 l 0,0 c 0.25887,-0.2716 0.51773,-0.5432 0.77659,-0.8148 1.75363,-1.4763 2.97314,-3.41914 3.97458,-5.36529 1.1588,-2.05842 2.13213,-4.21297 2.90471,-6.41252 0.84984,-2.09315 1.71529,-4.16522 2.02576,-6.39523 0.57009,-2.11887 0.89487,-4.25321 1.30155,-6.40358 0.40123,-2.10779 0.096,-4.26795 0.19002,-6.39909 7.4e-4,-2.16147 0.002,-4.32294 0.006,-6.4844 0.004,-2.15563 0.0107,-4.31132 -0.0107,-6.46689 -0.0342,-2.13346 -0.0827,-4.27203 -0.39374,-6.39032 -0.36115,-2.24013 -0.97166,-4.44662 -0.96092,-6.72295 -0.25022,-2.46724 -0.69799,-4.91095 -1.55075,-7.27383 -0.54137,-2.18926 -1.44849,-4.27133 -2.13785,-6.42315 -0.79348,-2.12501 -1.3571,-4.31515 -2.04103,-6.46937 -0.87948,-2.26394 -1.76924,-4.51995 -2.77958,-6.73973 -1.28685,-2.56596 -2.63664,-5.12379 -4.27507,-7.52366 -1.47124,-2.38575 -2.88029,-4.81702 -4.82677,-6.92778 -1.36123,-1.67329 -2.80914,-3.29519 -4.59362,-4.62375 -2.20329,-1.77045 -4.66398,-3.26845 -7.00023,-4.89005 -2.38891,-1.51204 -4.79063,-3.02 -7.49383,-4.04914 -2.32481,-1.00223 -4.67562,-1.97139 -7.13353,-2.68164 -2.48019,-0.70054 -4.96926,-1.37382 -7.50459,-1.89552 -2.88682,-0.56188 -5.77992,-1.09667 -8.66667,-1.66002 -2.51724,-0.53238 -5.0457,-1.14589 -7.64385,-1.22143 -2.38876,0.002 -4.77876,-9e-4 -7.16565,0.0959 -2.46106,0.12759 -4.91083,0.36329 -7.32905,0.80864 -2.70525,0.40317 -5.48252,0.41972 -8.12201,1.14751 -2.40493,0.70576 -4.8022,1.43665 -7.15203,2.2817 -1.28349,0.49697 -1.07861,0.39175 -2.33843,0.98669 -0.40816,0.19274 -1.61292,0.80364 -1.21573,0.59307 24.93168,-13.21736 16.10459,-8.97942 11.21063,-5.64489 -2.79698,1.91669 -5.29373,4.17081 -7.97727,6.21407 -2.09389,2.07919 -4.09832,4.22943 -5.79444,6.59203 -2.2934,2.5919 -4.29032,5.37327 -6.4161,8.07581 -2.08492,2.94811 -4.32474,5.83641 -5.86115,9.06376 -1.58032,3.02967 -3.13454,6.05892 -4.42349,9.20343 -1.28759,3.08825 -2.38103,6.25024 -3.49657,9.39203 -1.33198,3.64609 -2.42618,7.32721 -3.41702,11.06159 -0.98442,4.06506 -1.92189,8.13971 -2.28089,12.2962 -0.23013,4.00403 -0.78516,7.98054 -1.07333,11.98109 -0.0282,4.62874 0.0231,9.25757 0.0233,13.88633 -0.002,3.55963 0.0286,7.12162 0.18338,10.67873 0,0 -15.81415,7.26493 -15.81415,7.26493 z"
       inkscape:connector-curvature="0" />
    <path
       sodipodi:type="arc"
       style="fill:#2b0000;stroke:none"
       id="path3019"
       sodipodi:cx="339.41125"
       sodipodi:cy="522.53717"
       sodipodi:rx="22.223356"
       sodipodi:ry="20.708128"
       d="m 361.63461,522.53717 a 22.223356,20.708128 0 1 1 -44.44671,0 22.223356,20.708128 0 1 1 44.44671,0 z"
       transform="matrix(1.18654,0,0,1.18654,-86.48481,-100.81946)" />
    <path
       transform="matrix(1.18654,0,0,1.18654,-13.371042,-104.41522)"
       d="m 361.63461,522.53717 a 22.223356,20.708128 0 1 1 -44.44671,0 22.223356,20.708128 0 1 1 44.44671,0 z"
       sodipodi:ry="20.708128"
       sodipodi:rx="22.223356"
       sodipodi:cy="522.53717"
       sodipodi:cx="339.41125"
       id="path3021"
       style="fill:#2b0000;stroke:none"
       sodipodi:type="arc" />
    <path
       style="fill:#d40000;stroke:none"
       id="path2987"
       d="m 110.06097,582.17347 c 13.57103,-7.87926 28.88565,-11.83402 43.83228,-16.18994 36.30703,-10.03836 73.35499,-17.93617 110.69195,-23.05307 10.13496,-1.38897 20.31885,-2.39399 30.47828,-3.59098 62.83021,-6.10179 126.01096,-8.27924 189.11612,-7.96599 43.65684,0.63144 87.03663,6.4007 129.99684,13.83634 4.07676,0.74143 8.15351,1.48285 12.23027,2.22427 l -26.84403,18.68899 0,6 c -3.85394,-0.87802 -7.70788,-1.75602 -11.56182,-2.63404 -41.66179,-8.59758 -83.92964,-14.68997 -126.51892,-15.64943 -62.94224,-0.58532 -125.98959,1.34617 -188.61107,8.04735 -10.30102,1.34908 -20.62966,2.50176 -30.90305,4.04724 -38.41356,5.77873 -76.45899,14.55851 -113.62684,25.80134 -15.7689,5.06126 -31.664975,9.99545 -45.957573,18.57736 z"
       inkscape:connector-curvature="0"
       sodipodi:nodetypes="ccscccccccccsccc" />
    <path
       style="fill:#ffffff;stroke:none"
       id="path3076"
       d="m 409.2145,508.4962 c 0.24046,0.38535 0.52033,0.74241 0.78554,1.11027 0.35643,0.46501 0.68142,0.94959 0.96235,1.46356 0.27667,0.49188 0.55218,0.98677 0.7891,1.49931 0.18065,0.39759 0.29305,0.81252 0.39251,1.23542 0.1491,0.54121 0.0827,1.1105 0.0628,1.66389 -0.0117,0.83962 -0.13922,1.67171 -0.33008,2.48774 -0.22058,0.74988 -0.46416,1.49488 -0.7723,2.21372 -0.2445,0.59149 -0.61789,1.10027 -1.03827,1.57616 -0.40916,0.47998 -0.89815,0.87598 -1.3964,1.25794 -0.0686,0.0511 -0.13719,0.10219 -0.20579,0.15329 0,0 -3.20439,1.2601 -3.20439,1.2601 l 0,0 c 0.0732,-0.047 0.14647,-0.094 0.21971,-0.14099 0.49741,-0.38006 1.01953,-0.7351 1.43763,-1.20691 0.41725,-0.45228 0.82052,-0.92002 1.08757,-1.48078 0.32673,-0.70223 0.58551,-1.42957 0.8162,-2.16892 0.21101,-0.78491 0.35789,-1.59323 0.34087,-2.40913 0.007,-0.51781 0.0537,-1.05349 -0.0597,-1.5611 -0.10557,-0.40103 -0.1926,-0.80492 -0.35447,-1.18943 -0.21303,-0.51167 -0.48883,-0.99585 -0.75605,-1.4806 -0.28293,-0.49562 -0.59109,-0.97407 -0.95035,-1.41874 -0.27703,-0.36068 -0.54285,-0.73141 -0.83443,-1.07969 0,0 3.00801,-1.78511 3.00801,-1.78511 z"
       inkscape:connector-curvature="0" />
    <path
       style="fill:#ffffff;stroke:none"
       id="path3082"
       d="m 328.02718,505.09421 c 0.52246,0.0159 1.0208,0.1673 1.50701,0.34743 0.75332,0.25802 1.44883,0.64037 2.13533,1.03774 0.68038,0.40457 1.25464,0.93103 1.77253,1.52403 0.47844,0.52455 0.85245,1.12065 1.15892,1.75788 0.23869,0.5379 0.29542,1.11378 0.32268,1.69388 0.0409,0.62583 -0.0711,1.24197 -0.20399,1.85019 -0.11821,0.43933 -0.25427,0.8727 -0.40525,1.30173 0,0 -3.09292,1.44313 -3.09292,1.44313 l 0,0 c 0.15425,-0.41566 0.29303,-0.83583 0.41066,-1.26352 0.15433,-0.57134 0.26106,-1.166 0.23945,-1.75957 -0.0217,-0.53525 -0.0541,-1.07497 -0.25486,-1.5788 -0.2726,-0.61629 -0.62555,-1.19076 -1.08684,-1.68579 -0.49698,-0.56027 -1.05386,-1.05816 -1.70453,-1.43644 -0.67491,-0.38997 -1.37374,-0.74003 -2.12329,-0.96408 -0.48899,-0.14769 -0.99021,-0.25742 -1.50469,-0.21184 0,0 2.82979,-2.05597 2.82979,-2.05597 z"
       inkscape:connector-curvature="0" />
    <g
       sodipodi:type="inkscape:box3d"
       style="fill:#d40000;stroke:#ffffff;stroke-width:6;stroke-miterlimit:4;stroke-dasharray:none;stroke-linejoin:round"
       id="g2991"
       inkscape:perspectiveID="#perspective2989"
       inkscape:corner0="0.16524863 : 0.27415267 : 0 : 1"
       inkscape:corner7="-0.075008238 : 0.21074423 : 0.25792429 : 1">
      <path
         sodipodi:type="inkscape:box3dside"
         id="path3001"
         style="fill:#afafde;fill-rule:evenodd;stroke:#ffffff;stroke-width:6;stroke-miterlimit:4;stroke-dasharray:none;stroke-linejoin:round"
         inkscape:box3dsidetype="13"
         d="m 275.06847,615.95087 84.59481,58.75566 81.03557,-60.79292 -82.94378,-37.84434 z" />
      <path
         sodipodi:type="inkscape:box3dside"
         id="path2993"
         style="fill:#353564;fill-rule:evenodd;stroke:#ffffff;stroke-width:6;stroke-miterlimit:4;stroke-dasharray:none;stroke-linejoin:round"
         inkscape:box3dsidetype="6"
         d="m 275.06847,534.30723 0,81.64364 82.6866,-39.8816 0,-66.84721 z" />
      <path
         sodipodi:type="inkscape:box3dside"
         id="path3003"
         style="fill:#e9e9ff;fill-rule:evenodd;stroke:#ffffff;stroke-width:6;stroke-miterlimit:4;stroke-dasharray:none;stroke-linejoin:round"
         inkscape:box3dsidetype="11"
         d="m 357.75507,509.22206 82.94378,24.2673 0,80.42425 -82.94378,-37.84434 z" />
      <path
         sodipodi:type="inkscape:box3dside"
         id="path2995"
         style="fill:#4d4d9f;fill-rule:evenodd;stroke:#ffffff;stroke-width:6;stroke-miterlimit:4;stroke-dasharray:none;stroke-linejoin:round"
         inkscape:box3dsidetype="5"
         d="m 275.06847,534.30723 84.59481,37.54959 81.03557,-38.36746 -82.94378,-24.2673 z" />
      <path
         sodipodi:type="inkscape:box3dside"
         id="path2999"
         style="fill:#d7d7ff;fill-rule:evenodd;stroke:#ffffff;stroke-width:6;stroke-miterlimit:4;stroke-dasharray:none;stroke-linejoin:round"
         inkscape:box3dsidetype="14"
         d="m 359.66328,571.85682 0,102.84971 81.03557,-60.79292 0,-80.42425 z" />
      <path
         sodipodi:type="inkscape:box3dside"
         id="path2997"
         style="fill:#8686bf;fill-rule:evenodd;stroke:#ffffff;stroke-width:6;stroke-miterlimit:4;stroke-dasharray:none;stroke-linejoin:round"
         inkscape:box3dsidetype="3"
         d="m 275.06847,534.30723 84.59481,37.54959 0,102.84971 -84.59481,-58.75566 z" />
    </g>
  </g>
</svg>
