<?xml version="1.0" standalone="no"?>
<!DOCTYPE svg PUBLIC "-//W3C//DTD SVG 20010904//EN"
 "http://www.w3.org/TR/2001/REC-SVG-20010904/DTD/svg10.dtd">
<svg version="1.0" xmlns="http://www.w3.org/2000/svg"
 width="607.000000pt" height="607.000000pt" viewBox="0 0 607.000000 607.000000"
 preserveAspectRatio="xMidYMid meet">
<metadata>
Created by potrace 1.11, written by Peter Selinger 2001-2013
</metadata>
<g transform="translate(0.000000,607.000000) scale(0.100000,-0.100000)"
fill="#000000" stroke="none">
<path d="M876 3884 l-876 -877 842 -843 843 -843 194 192 c106 106 209 209
228 230 20 20 39 37 45 37 5 0 112 -103 239 -230 l229 -229 250 249 c137 138
255 250 262 250 8 0 32 -18 53 -41 48 -49 198 -162 280 -211 148 -88 380 -182
487 -198 4 -1 22 -5 39 -10 17 -5 57 -12 88 -16 31 -3 60 -9 66 -12 24 -15
335 -9 450 8 501 74 936 355 1209 783 112 174 214 444 242 637 3 25 10 70 14
100 8 59 6 383 -3 397 -3 5 -8 30 -11 55 -15 120 -72 310 -138 452 -130 283
-350 537 -618 716 -77 51 -247 137 -345 173 -95 36 -249 73 -370 91 -93 13
-377 15 -430 3 -11 -3 -45 -8 -75 -12 -279 -36 -643 -210 -855 -407 -22 -21
-45 -38 -51 -38 -6 0 -116 106 -245 235 l-234 235 -230 -230 c-127 -126 -233
-230 -238 -230 -4 0 -110 104 -236 230 l-230 230 -875 -876z"/>
</g>
</svg>
